<svg id="Layer_1" data-name="Layer 1" xmlns="http://www.w3.org/2000/svg" viewBox="0 0 49.0908 80">
  <defs>
    <style>
      .cls-1 {
        opacity: 0.7474;
      }

      .cls-2 {
        fill: #fff;
        fill-rule: evenodd;
      }
    </style>
  </defs>
  <title>p-icon</title>
  <path class="cls-2" d="M44.3728,1.7276A7.1792,7.1792,0,0,1,46.4134,6.91V7.9152a6.436,6.436,0,0,1,7.0254,1.1622,7.2379,7.2379,0,0,1,2.0406,5.214v4.1145a6.3836,6.3836,0,0,1,2.6819-.5652,6.1846,6.1846,0,0,1,4.3435,1.7274,7.1786,7.1786,0,0,1,2.0406,5.1826V53.3961c0,8.6992-3.0606,15.4748-7.696,19.9451a24.61,24.61,0,0,1-33.67,0c-4.6352-4.47-7.7251-11.2459-7.7251-19.9451V35.7127a7.1777,7.1777,0,0,1,2.07-5.1826,6.19,6.19,0,0,1,4.3433-1.7276,6.3918,6.3918,0,0,1,2.6821.5654V14.26a7.1783,7.1783,0,0,1,2.0406-5.1826,6.2713,6.2713,0,0,1,7.0254-1.1622V6.91a7.1784,7.1784,0,0,1,2.0406-5.1825A6.1849,6.1849,0,0,1,40,0a7.0926,7.0926,0,0,1,4.3728,1.7276ZM40,4.02a2.6934,2.6934,0,0,0-1.8656.6911A2.7738,2.7738,0,0,0,37.3473,6.91V38.9792a1.873,1.873,0,1,1-3.7314,0V14.4169a3.9034,3.9034,0,0,0-.7872-2.3556,2.7166,2.7166,0,0,0-1.8656-.7224,2.61,2.61,0,0,0-2.682,2.9211V52.8307a2.0219,2.0219,0,0,1-1.8656,2.039,2.0219,2.0219,0,0,1-1.8656-2.039V35.901a3.83,3.83,0,0,0-.787-2.3557,2.7818,2.7818,0,0,0-1.8951-.7223,2.6441,2.6441,0,0,0-2.6818,2.89V53.3961c0,7.7009,2.6039,13.2312,6.4716,16.9611a21.105,21.105,0,0,0,28.685,0c3.8675-3.73,6.4714-9.26,6.4714-16.9611V24.7507a2.6908,2.6908,0,0,0-4.5183-2.1672,2.9636,2.9636,0,0,0-.8163,2.3871V42.5912a1.873,1.873,0,1,1-3.7314,0v-28.3a2.83,2.83,0,0,0-.7871-2.23,2.7715,2.7715,0,0,0-1.8949-.7224,2.6985,2.6985,0,0,0-1.8656.7224,2.83,2.83,0,0,0-.787,2.23v25.002a1.8731,1.8731,0,1,1-3.7315,0q-.0139-16.2051,0-32.3833a2.7774,2.7774,0,0,0-.8161-2.1986A2.6939,2.6939,0,0,0,40,4.02Z" transform="translate(-15.4546)"/>
</svg>
