<svg id="Layer_1" data-name="Layer 1" xmlns="http://www.w3.org/2000/svg" xmlns:xlink="http://www.w3.org/1999/xlink" viewBox="0 0 68.7704 75.9499">
  <defs>
    <style>
      .cls-1, .cls-4 {
        fill: #fff;
      }

      .cls-2 {
        fill: none;
        stroke: #fff;
      }

      .cls-3 {
        mask: url(#mask);
      }

      .cls-4 {
        fill-rule: evenodd;
      }
    </style>
    <mask id="mask" x="-53.7733" y="-50.8213" width="180.4473" height="180.5857" maskUnits="userSpaceOnUse">
      <g transform="translate(-6.0227 -2.025)">
        <g id="mask0_0_10944" data-name="mask0 0 10944">
          <path class="cls-1" d="M42.473-48.2962h0a89.7583,89.7583,0,0,1,89.7237,89.7928h0A89.7583,89.7583,0,0,1,42.473,131.29h0A89.7582,89.7582,0,0,1-47.2506,41.4966h0A89.7582,89.7582,0,0,1,42.473-48.2962Z"/>
          <path class="cls-2" d="M42.473-48.2962h0a89.7583,89.7583,0,0,1,89.7237,89.7928h0A89.7583,89.7583,0,0,1,42.473,131.29h0A89.7582,89.7582,0,0,1-47.2506,41.4966h0A89.7582,89.7582,0,0,1,42.473-48.2962Z"/>
        </g>
      </g>
    </mask>
  </defs>
  <title>r-icon</title>
  <g class="cls-3">
    <g>
      <path class="cls-4" d="M70.266,61.1422c3.921-7.9189,3.9663-38.2437,3.9663-39.5311a7.8381,7.8381,0,0,0-7.85-7.6106,10.6855,10.6855,0,0,0-2.8548.5327A8.84,8.84,0,0,0,54.7649,6.391,8.7,8.7,0,0,0,49.2012,8.4,8.8116,8.8116,0,0,0,40.95,2.5862c-4.0918,0-8.3972,2.3526-9.6722,6.7662a8.112,8.112,0,0,0-5.09-1.6931c-5.0063,0-8.64,4-8.64,9.5169l.0137,5.0614a22.0076,22.0076,0,0,0-4.7762,3.4611c-6.8185,6.2588-9.05,21.3938-1.35,33.1073,7.886,11.9988,19.8139,18.6078,33.5867,18.6078C60.8827,77.4138,66.19,69.3755,70.266,61.1422ZM66.4642,17.8063a3.97,3.97,0,0,1,3.9914,3.8048c0,8.5175-.6481,31.9191-3.5757,37.8315-3.8382,7.753-8.1474,14.1689-21.8888,14.1689-12.4691,0-23.3142-6.0038-30.4782-16.9055C9.915,49.71,7.771,35.2524,15.11,28.518a20.4789,20.4789,0,0,1,2.5872-1.8073l-.0188,13.2911c0,1.5853.5376,2.5366,1.6666,2.5366s1.68-.8979,1.68-2.5366V17.1724c0-2.841,1.6729-5.7072,5.0389-5.7072,3.479,0,4.7652,3.0743,4.7652,5.7072a1.9817,1.9817,0,0,0,1.9843,1.9023,2.0206,2.0206,0,0,0,2.027-1.9023V12.0993c0-4.1877,3.7554-5.707,6.28-5.707a5.0537,5.0537,0,0,1,5.0239,5.0729v6.9753a1.884,1.884,0,1,0,3.7679,0V15.27a5.0241,5.0241,0,1,1,10.0477,0v8.2437a1.8839,1.8839,0,1,0,3.7677,0v-4.89C63.7274,18.2681,65.61,17.8063,66.4642,17.8063Z" transform="translate(-6.0227 -2.025)"/>
      <path class="cls-1" d="M70.266,61.1422l-.5026-.2492h0ZM66.3826,14.0005v-.5612h0Zm-2.8548.5327.17.5347-.6714.2135-.0574-.7027ZM49.2012,8.4l.3573.4326-.6117.5059-.2723-.7457Zm-17.9239.9525.5388.1557-.2308.7994-.6541-.5138Zm-13.73,7.8238-.5607.0014v-.0014Zm.0137,5.0614.5608-.0015.0011.3454-.3077.1565Zm-4.7762,3.4611-.3791-.4135,0,0Zm-1.35,33.1073.4683-.3084v0Zm55.4452.6366-.5025-.2489v0ZM14.5129,56.706l.4686-.3085h0ZM15.11,28.518l.3791.4135,0,0Zm2.5872-1.8073-.286-.4827.8481-.5035-.0013.9871Zm-.0188,13.2911h-.5608v-.0007ZM74.793,21.6111c0,.6476-.0114,8.5631-.5136,17.3109-.2513,4.3732-.6256,8.9634-1.1842,12.9614-.5556,3.9758-1.3021,7.4382-2.3267,9.508l-1.0049-.4984a33.7817,33.7817,0,0,0,2.2209-9.1649c.5527-3.9554.9248-8.5117,1.1751-12.87.5007-8.7162.5119-16.607.5119-17.2465Zm-8.41-8.1718a8.3986,8.3986,0,0,1,8.41,8.1718H73.6715a7.2774,7.2774,0,0,0-7.2892-7.0494Zm-3.0248.5589a11.21,11.21,0,0,1,3.0246-.5589v1.1224a10.1648,10.1648,0,0,0-2.685.5062ZM54.7649,5.83a9.4006,9.4006,0,0,1,9.3219,8.6576l-1.118.0913a8.2786,8.2786,0,0,0-8.2039-7.6265ZM48.8438,7.9673A9.2611,9.2611,0,0,1,54.7649,5.83V6.9522a8.1384,8.1384,0,0,0-5.2064,1.88ZM40.95,2.025a9.372,9.372,0,0,1,8.7783,6.1823l-1.0533.3854A8.2505,8.2505,0,0,0,40.95,3.1474ZM30.7387,9.1966C32.0994,4.4854,36.6733,2.025,40.95,2.025V3.1474c-3.9077,0-7.9446,2.2449-9.1334,6.3607ZM26.187,7.0981a8.672,8.672,0,0,1,5.4366,1.8127l-.6924.8829A7.5536,7.5536,0,0,0,26.187,8.2205Zm-9.2,10.0781c0-5.775,3.8352-10.0781,9.2-10.0781V8.2205c-4.6472,0-8.0789,3.697-8.0789,8.9557ZM17,22.2392l-.0136-5.0616,1.1215-.0029.0137,5.0614ZM12.4059,25.285a22.5565,22.5565,0,0,1,4.9012-3.5477l.5081,1.0007a21.47,21.47,0,0,0-4.6518,3.3744Zm-1.44,33.8294a30.5322,30.5322,0,0,1-4.86-18.9492c.4551-6.1286,2.7567-11.6279,6.3-14.88l.7582.827c-3.2756,3.0067-5.4992,8.2041-5.9395,14.1363A29.4092,29.4092,0,0,0,11.903,58.4976ZM45.0214,77.975c-13.9709,0-26.0708-6.7118-34.0553-18.8606l.9369-.6166c7.7878,11.8488,19.5436,18.3548,33.1184,18.3548ZM70.7685,61.3914c-2.0446,4.13-4.4351,8.2934-8.3562,11.4133-3.936,3.1317-9.3584,5.17-17.3909,5.17V76.8526c7.8286,0,12.9908-1.9809,16.6928-4.9265,3.7171-2.9576,6.0183-6.93,8.0492-11.0331Zm-.8737-39.78a3.41,3.41,0,0,0-3.4306-3.2435V17.2451a4.5306,4.5306,0,0,1,4.5521,4.366ZM66.3774,59.1934a26.9543,26.9543,0,0,0,1.7418-7.0415c.4692-3.1378.8234-6.8671,1.087-10.6867.5269-7.6387.6886-15.6051.6886-19.8541h1.1215c0,4.2685-.1621,12.2617-.6913,19.9313-.2644,3.8344-.6211,7.5965-1.0966,10.7756a27.8443,27.8443,0,0,1-1.8461,7.3738ZM44.9911,73.05c6.7786,0,11.1594-1.58,14.3118-4.0573,3.1686-2.49,5.16-5.9317,7.0745-9.7993l1.0049.4981c-1.9232,3.8851-4.0059,7.5276-7.3867,10.1841-3.3972,2.6691-8.0417,4.2968-15.0045,4.2968Zm-30.01-16.6528C22.047,67.15,32.72,73.05,44.9911,73.05v1.1224c-12.6674,0-23.6843-6.107-30.9468-17.1585Zm.5069-27.4658c-3.4983,3.21-4.7834,8.3132-4.593,13.5618a28.5748,28.5748,0,0,0,4.0861,13.904l-.937.6167a29.6865,29.6865,0,0,1-4.27-14.48c-.1963-5.4129,1.1159-10.9062,4.9559-14.43Zm2.2083-2.221.2862.4828h0l-.0007,0-.0033.002-.0139.0083-.055.033c-.0482.0292-.1184.0718-.2055.1255-.174.1075-.4147.2586-.68.4332a13.31,13.31,0,0,0-1.5352,1.1355l-.7584-.827a14.348,14.348,0,0,1,1.6788-1.2473c.2763-.1813.526-.338.7065-.45.09-.0557.1636-.1.2145-.1311l.059-.0355.0157-.0094.0042-.0025.0012-.0006,0,0,0,0Zm-.58,13.29L17.1359,26.71l1.1216.0016-.0188,13.2911ZM19.3445,43.1a1.9572,1.9572,0,0,1-1.73-.9349,4.0671,4.0671,0,0,1-.4969-2.1629h1.1216a3,3,0,0,0,.323,1.5628.8411.8411,0,0,0,.7828.4126Zm2.2413-3.0978a4.0278,4.0278,0,0,1-.5074,2.1887,1.9705,1.9705,0,0,1-1.7339.9091V41.9772a.8551.8551,0,0,0,.7936-.3986,2.9661,2.9661,0,0,0,.3261-1.5768Zm0-22.8294V40.0018H20.4642V17.1724Zm4.4781-5.146a4.0646,4.0646,0,0,0-3.34,1.5732,5.8446,5.8446,0,0,0-1.1379,3.5728H20.4642a6.9654,6.9654,0,0,1,1.3766-4.2652,5.1842,5.1842,0,0,1,4.2231-2.0032Zm4.2044,5.146A6.3275,6.3275,0,0,0,29.29,13.65a3.6907,3.6907,0,0,0-3.2256-1.6237V10.904a4.8092,4.8092,0,0,1,4.1488,2.1088,7.4422,7.4422,0,0,1,1.1772,4.16Zm2.5451,2.4635a2.5421,2.5421,0,0,1-2.5451-2.4635H31.39a1.4215,1.4215,0,0,0,1.4235,1.3411Zm2.5878-2.4635a2.58,2.58,0,0,1-2.5878,2.4635V18.5135A1.4617,1.4617,0,0,0,34.28,17.1724Zm0-5.0731v5.0731H34.28V12.0993ZM41.12,6.9535a6.665,6.665,0,0,0-3.759,1.1774,4.6419,4.6419,0,0,0-1.96,3.9684H34.28A5.7609,5.7609,0,0,1,36.7062,7.22,7.7828,7.7828,0,0,1,41.12,5.8311Zm4.4631,4.5117A4.4928,4.4928,0,0,0,41.12,6.9535V5.8311a5.6146,5.6146,0,0,1,5.5846,5.6341Zm0,6.9753V11.4652h1.1215v6.9753Zm2.4447,2.4637a2.4549,2.4549,0,0,1-2.4447-2.4637h1.1215a1.333,1.333,0,0,0,1.3232,1.3413Zm2.4448-2.4637a2.455,2.455,0,0,1-2.4448,2.4637V19.7818a1.333,1.333,0,0,0,1.3232-1.3413Zm0-3.1706v3.1706H49.3512V15.27Zm4.463-4.5116a4.4927,4.4927,0,0,0-4.463,4.5116H49.3512a5.6146,5.6146,0,0,1,5.5846-5.634ZM59.3989,15.27a4.4927,4.4927,0,0,0-4.4631-4.5116V9.6359a5.6147,5.6147,0,0,1,5.5847,5.634Zm0,8.2437V15.27h1.1216v8.2437Zm2.4445,2.4634a2.4547,2.4547,0,0,1-2.4445-2.4634h1.1216a1.3327,1.3327,0,0,0,1.3229,1.341Zm2.4448-2.4634a2.4549,2.4549,0,0,1-2.4448,2.4634V24.8546a1.3328,1.3328,0,0,0,1.3232-1.341Zm0-4.89v4.89H63.1666v-4.89Zm2.176-.2556a6.77,6.77,0,0,0-1.5392.255,3.96,3.96,0,0,0-.6431.2269c-.0345.0171-.06.0317-.0792.0431s-.0255.0178-.0231.0155a.259.259,0,0,0,.0476-.06.4333.4333,0,0,0,.061-.2252H63.1666a.75.75,0,0,1,.2739-.5591,1.593,1.593,0,0,1,.3475-.2223,5.0121,5.0121,0,0,1,.838-.301,7.819,7.819,0,0,1,1.8382-.2957Z" transform="translate(-6.0227 -2.025)"/>
    </g>
  </g>
</svg>
