<svg id="Layer_1" data-name="Layer 1" xmlns="http://www.w3.org/2000/svg" xmlns:xlink="http://www.w3.org/1999/xlink" viewBox="0 0 90.4428 100.5">
  <defs>
    <style>
      .cls-1, .cls-5 {
        fill: #fff;
      }

      .cls-2 {
        fill: none;
      }

      .cls-2, .cls-5 {
        stroke: #fff;
      }

      .cls-3 {
        opacity: 0.7474;
      }

      .cls-4 {
        mask: url(#mask);
      }

      .cls-5 {
        stroke-width: 0.5px;
      }
    </style>
    <mask id="mask" x="-150.8054" y="-66.4474" width="392.0527" height="392.0527" maskUnits="userSpaceOnUse">
      <g transform="translate(-4.7786 0.25)">
        <g id="mask0_0_10495" data-name="mask0 0 10495">
          <path class="cls-1" d="M50-66.1974h0c107.9862,0,195.5263,87.54,195.5263,195.5264h0c0,107.9862-87.54,195.5263-195.5263,195.5263h0c-107.9863,0-195.5264-87.54-195.5264-195.5263h0C-145.5268,21.3427-57.9867-66.1974,50-66.1974Z"/>
          <path class="cls-2" d="M50-66.1974h0c107.9862,0,195.5263,87.54,195.5263,195.5264h0c0,107.9862-87.54,195.5263-195.5263,195.5263h0c-107.9863,0-195.5264-87.54-195.5264-195.5263h0C-145.5268,21.3427-57.9867-66.1974,50-66.1974Z"/>
        </g>
      </g>
    </mask>
  </defs>
  <title>random-icon</title>
  <g class="cls-4">
    <g>
      <path class="cls-5" d="M21.4093.7731,5.8043,16.3382a2.6416,2.6416,0,0,0,3.7405,3.731L20.9013,8.7416v9.4619c0,17.0824,15.2847,29.5577,30.07,41.6213C65.436,71.63,79.099,82.7831,79.099,97.3616a2.6455,2.6455,0,0,0,5.2909,0c0-17.0824-15.2851-29.5578-30.07-41.6213C39.8553,43.9352,26.1919,32.787,26.1919,18.2035V9.1162L37.58,20.1009a2.6419,2.6419,0,1,0,3.6771-3.7944L25.9142,1.51A2.6282,2.6282,0,0,0,23.5468,0c-.05,0-.09.0266-.1377.0289A2.6112,2.6112,0,0,0,21.4093.7731Z" transform="translate(-4.7786 0.25)"/>
      <path class="cls-5" d="M74.0837,1.5091,58.7408,16.3065A2.6417,2.6417,0,1,0,62.42,20.0982L73.8084,9.1162v9.0873c0,8.1691-4.18,15.8658-13.5492,24.9586a2.6418,2.6418,0,1,0,3.6877,3.7838C74.4251,36.7766,79.0994,27.9137,79.0994,18.2035V8.7416L90.4559,20.0692a2.6415,2.6415,0,1,0,3.74-3.731L78.5914.7731a2.6062,2.6062,0,0,0-2-.7442C76.5438.0262,76.5043,0,76.4539,0A2.6328,2.6328,0,0,0,74.0837,1.5091Z" transform="translate(-4.7786 0.25)"/>
      <path class="cls-5" d="M20.9013,97.3616a23.2128,23.2128,0,0,1,.4443-4.5014c1.8759-9.46,9.727-17.5231,16.3589-23.4917a2.6307,2.6307,0,0,0,.19-3.7256,2.6489,2.6489,0,0,0-3.7349-.19c-7.238,6.515-15.8247,15.4016-18.0045,26.3836a28.2853,28.2853,0,0,0-.5447,5.5252,2.6453,2.6453,0,0,0,5.2905,0Z" transform="translate(-4.7786 0.25)"/>
    </g>
  </g>
</svg>
