<svg id="Layer_1" data-name="Layer 1" xmlns="http://www.w3.org/2000/svg" xmlns:xlink="http://www.w3.org/1999/xlink" viewBox="0 0 49.8285 80">
  <defs>
    <style>
      .cls-1, .cls-4 {
        fill: #fff;
      }

      .cls-2 {
        fill: none;
        stroke: #fff;
      }

      .cls-3 {
        mask: url(#mask);
      }

      .cls-4 {
        fill-rule: evenodd;
      }
    </style>
    <mask id="mask" x="-43.9568" y="-27.9462" width="138.2312" height="138.2312" maskUnits="userSpaceOnUse">
      <g transform="translate(-15.0858 -0.0008)">
        <g id="mask0_0_10488" data-name="mask0 0 10488">
          <path class="cls-1" d="M40.2445-27.4454h0A68.6155,68.6155,0,0,1,108.86,41.17h0a68.6156,68.6156,0,0,1-68.6156,68.6156h0A68.6156,68.6156,0,0,1-28.371,41.17h0A68.6155,68.6155,0,0,1,40.2445-27.4454Z"/>
          <path class="cls-2" d="M40.2445-27.4454h0A68.6155,68.6155,0,0,1,108.86,41.17h0a68.6156,68.6156,0,0,1-68.6156,68.6156h0A68.6156,68.6156,0,0,1-28.371,41.17h0A68.6155,68.6155,0,0,1,40.2445-27.4454Z"/>
        </g>
      </g>
    </mask>
  </defs>
  <title>s-icon</title>
  <g class="cls-3">
    <path class="cls-4" d="M22.335,8.1766a2.7267,2.7267,0,0,1,5.3407-1.1027l6.29,30.0742a1.8092,1.8092,0,0,0,2.1412,1.395,1.7826,1.7826,0,0,0,.6925-.3076A1.7967,1.7967,0,0,0,37.9233,36.8l3.931-30.8314a2.6861,2.6861,0,0,1,1.0338-1.8008,2.7394,2.7394,0,0,1,3.826.4822,2.6762,2.6762,0,0,1,.55,1.9994L43.38,37.1229a1.7874,1.7874,0,0,0,.8,1.7205,1.795,1.795,0,0,0,3.2032-1.117V35.4777a3.1687,3.1687,0,0,1,6.3373,0v5.8465a1.8107,1.8107,0,0,0,3.6214,0V38.0458a5.0036,5.0036,0,0,1,1.52-.3194,2.4025,2.4025,0,0,1,2.4245,2.2487c0,8.3522-.687,22.9684-2.5295,26.6292-2.6979,5.3616-5.7164,9.8-15.3726,9.8A25.3842,25.3842,0,0,1,21.79,64.6156c-3.2429-4.8544-4.7159-14.8294.3577-19.41a13.9211,13.9211,0,0,1,1.7528-1.2044l1.261,8.6538a1.8089,1.8089,0,0,0,1.79,1.5416,1.989,1.989,0,0,0,.2616-.018A1.8017,1.8017,0,0,0,28.7458,52.14L22.354,8.2845ZM58.8032,34.1277a7.4394,7.4394,0,0,0-1.6739.2509,6.7537,6.7537,0,0,0-9.0861-5.198L50.857,7.1017a6.2312,6.2312,0,0,0-1.2811-4.6564A6.3546,6.3546,0,0,0,38.261,5.5168L35.53,26.94,31.2211,6.3418A6.3471,6.3471,0,0,0,18.778,8.85l4.5339,31.113c-1.4965.8212-3.2493,2.0588-3.3434,2.1262-5.3732,3.8408-7.0853,15.6317-1.1507,24.513,5.7707,8.64,14.5027,13.3982,24.5873,13.3982,11.6935,0,15.6018-5.8239,18.6031-11.7892,2.8734-5.7088,2.906-27.32,2.906-28.2365A6.0647,6.0647,0,0,0,58.8032,34.1277Z" transform="translate(-15.0858 -0.0008)"/>
  </g>
</svg>
